<svg width="46" height="50" viewBox="0 0 46 50" fill="none" xmlns="http://www.w3.org/2000/svg">
<path d="M34.3228 21.6446V12.1822C34.3228 11.9114 34.1977 11.6611 34.0207 11.4632L23.412 0.323105C23.214 0.114822 22.9325 0 22.6513 0H5.83157C2.72641 0 0.246094 2.5322 0.246094 5.63774V37.4428C0.246094 40.5483 2.72641 43.0389 5.83157 43.0389H19.1082C21.6195 47.2073 26.1841 50 31.3839 50C39.283 50 45.7337 43.5806 45.7337 35.6712C45.7444 28.7621 40.7837 22.9889 34.3228 21.6446ZM23.6935 3.65791L30.811 11.1504H26.1944C24.8188 11.1504 23.6935 10.0147 23.6935 8.63915V3.65791ZM5.83157 40.9546C3.88303 40.9546 2.33044 39.3913 2.33044 37.4428V5.63774C2.33044 3.67851 3.88303 2.08435 5.83157 2.08435H21.6092V8.63915C21.6092 11.1713 23.6622 13.2347 26.1944 13.2347H32.2384V21.3734C31.926 21.3631 31.6758 21.3318 31.4049 21.3318C27.768 21.3318 24.4229 22.7284 21.901 24.9168H8.66627C8.09292 24.9168 7.6241 25.3857 7.6241 25.9586C7.6241 26.532 8.09292 27.0008 8.66627 27.0008H19.9627C19.2227 28.043 18.6078 29.0852 18.1286 30.2315H8.66627C8.09292 30.2315 7.6241 30.7003 7.6241 31.2737C7.6241 31.8466 8.09292 32.3158 8.66627 32.3158H17.4511C17.1906 33.358 17.0552 34.5146 17.0552 35.6712C17.0552 37.5469 17.4199 39.402 18.0764 40.9653H5.83157V40.9546ZM31.3946 47.9263C24.6418 47.9263 19.1498 42.4343 19.1498 35.6815C19.1498 28.9288 24.6312 23.4367 31.3946 23.4367C38.1577 23.4367 43.639 28.9288 43.639 35.6815C43.639 42.4343 38.1474 47.9263 31.3946 47.9263Z" fill="white"/>
<path d="M8.6662 21.78H19.2226C19.796 21.78 20.2648 21.3108 20.2648 20.7379C20.2648 20.1645 19.796 19.6957 19.2226 19.6957H8.6662C8.09285 19.6957 7.62402 20.1645 7.62402 20.7379C7.62402 21.3108 8.09285 21.78 8.6662 21.78Z" fill="white"/>
<path d="M37.0636 30.992L29.1851 38.2033L25.3295 34.014C24.9439 33.5868 24.2767 33.5662 23.8601 33.9515C23.4329 34.3371 23.4119 35.0043 23.7976 35.4209L28.3618 40.3708C28.5701 40.5898 28.8517 40.7046 29.1332 40.7046C29.383 40.7046 29.6333 40.6108 29.8416 40.4334L38.4807 32.5137C38.908 32.1281 38.9393 31.4609 38.5433 31.0443C38.1473 30.6274 37.4908 30.5961 37.0636 30.992Z" fill="white"/>
</svg>
