<svg width="30" height="34" viewBox="0 0 30 34" fill="none" xmlns="http://www.w3.org/2000/svg">
<path fill-rule="evenodd" clip-rule="evenodd" d="M3.48397 9.63386L2.83207 23.2097L9.20018 27.3529L9.05303 30.4173L0.0879692 24.6051L0.0816994 24.6048L0.887546 7.82291L13.074 1.71137L13.0344 1.68607L15.7552 0.283322L18.915 2.36935L18.9103 2.46895L18.66 7.68109L21.8168 9.7311L21.8528 9.73283L21.8517 9.75617L25.0299 11.8197L24.8824 14.8903L21.7043 12.8268L21.136 24.6611L18.3827 26.2152L19.1066 11.139L15.9162 9.07026L15.9099 9.06996L16.1659 3.73953L15.6315 3.38317L3.48397 9.63386ZM29.3397 9.09556L29.346 9.09586L28.5359 25.9665L14.296 33.2897L14.2957 33.2959L10.4996 30.8502L11.2319 15.6013L9.0741 19.9669L7.40905 15.5769L7.01334 23.8176L4.40787 22.195L4.9677 10.5365C6.01994 10.0208 7.17645 9.55846 8.00133 9.19717L9.51437 14.299L11.63 7.34352L14.3853 5.81296L13.2498 29.4582L14.4417 30.2237L25.9301 24.3188L26.5944 10.4846L20.2262 6.34146L20.3735 3.27549L29.3397 9.09556Z" fill="white"/>
</svg>
