<svg width="50" height="40" viewBox="0 0 50 40" fill="none" xmlns="http://www.w3.org/2000/svg">
<path d="M49.1114 4.45599C48.4636 3.69017 47.5564 3.2224 46.5567 3.1389L11.3461 0.198875C10.3463 0.115379 9.37428 0.426218 8.60837 1.07397C7.84558 1.71918 7.37849 2.62182 7.29236 3.61664L6.58396 10.2627H3.75536C1.68466 10.2627 0 11.9474 0 14.0181V36.0592C0 38.1299 1.68466 39.8146 3.75536 39.8146H39.0885C41.1593 39.8146 42.844 38.1299 42.844 36.0592V32.4837L44.0978 32.5884C44.2035 32.5972 44.3087 32.6016 44.413 32.6016C46.3435 32.6016 47.9892 31.1163 48.1527 29.1585L49.9867 7.19387C50.0701 6.19417 49.7593 5.2219 49.1114 4.45599V4.45599ZM3.75536 12.2158H39.0885C40.0823 12.2158 40.8909 13.0243 40.8909 14.0181V16.0265H1.95312V14.0181C1.95312 13.0243 2.76161 12.2158 3.75536 12.2158V12.2158ZM1.95312 17.9796H40.8909V22.0312H1.95312V17.9796ZM39.0885 37.8614H3.75536C2.76161 37.8614 1.95312 37.0529 1.95312 36.0592V23.9843H40.8909V36.0592C40.8909 37.0529 40.0823 37.8614 39.0885 37.8614ZM48.0403 7.03127L46.2063 28.9959C46.1236 29.9863 45.2504 30.725 44.2603 30.642L42.844 30.5238V14.0181C42.844 11.9474 41.1593 10.2627 39.0885 10.2627H8.54821L9.23561 3.81351C9.23639 3.80609 9.23708 3.79876 9.23766 3.79125C9.32038 2.80092 10.193 2.06225 11.1836 2.14525L46.3943 5.08528C46.874 5.12532 47.3095 5.34983 47.6203 5.71741C47.9312 6.08499 48.0804 6.55149 48.0403 7.03127V7.03127Z" fill="white"/>
<path d="M36.8039 26.8879H27.4053C26.8659 26.8879 26.4287 27.3251 26.4287 27.8645V33.9962C26.4287 34.5356 26.8659 34.9728 27.4053 34.9728H36.8039C37.3433 34.9728 37.7805 34.5356 37.7805 33.9962V27.8645C37.7805 27.3251 37.3433 26.8879 36.8039 26.8879ZM35.8273 33.0197H28.3818V28.8411H35.8273V33.0197Z" fill="white"/>
</svg>
